<?xml version="1.0" encoding="utf-8"?>
<!-- Generator: Adobe Illustrator 16.0.0, SVG Export Plug-In . SVG Version: 6.00 Build 0)  -->
<!DOCTYPE svg PUBLIC "-//W3C//DTD SVG 1.1//EN" "http://www.w3.org/Graphics/SVG/1.1/DTD/svg11.dtd">
<svg version="1.1" id="Capa_1" xmlns="http://www.w3.org/2000/svg" xmlns:xlink="http://www.w3.org/1999/xlink" x="0px" y="0px"
	 width="282.415px" height="67.188px" viewBox="0 0 282.415 67.188" enable-background="new 0 0 282.415 67.188"
	 xml:space="preserve">
<g>
	<g>
		<path fill="#FFFFFF" d="M236.306,67.188l0.054-11.016h-7.752V12.803h43.369v43.369h-22.249L236.306,67.188z M266.198,18.515
			h-31.824v31.822h7.073l-0.491,7.685l7.48-7.685h17.762V18.515z"/>
	</g>
	<g>
		<path fill="#FFFFFF" d="M204.805,54.82l-5.831-42.018l-5.126,0.014l-24.955,42.05l6.786-0.014l18.712-32.53l3.632,32.489
			L204.805,54.82L204.805,54.82z M141.381,12.925l-0.014,0.056l0.014-0.028l5.915,33.754l21.733-33.808v0.054l0.014-0.081
			l6.364-0.026l-9.575,42.021l-6.351,0.027l5.59-24.602l-16.074,24.615h-0.259l0.014,0.015h-2.217l-2.406,0.012v-0.012l-1.646-0.015
			l-4.801-25.703l-5.861,25.729l-6.365,0.015l9.546-42.01L141.381,12.925L141.381,12.925z M117.446,54.962l9.574-41.995
			l-6.365,0.014l-9.574,42.009L117.446,54.962L117.446,54.962z M103.084,54.989l-5.833,0.026L84.576,25.491l-6.718,29.566
			l-6.378,0.012l9.56-42.009l5.835-0.013l12.689,29.456l6.718-29.497l6.378-0.015L103.084,54.989L103.084,54.989z M65.726,55.084
			l1.292-5.726L46.564,49.4l2.87-12.621l17.462-0.028l1.292-5.67l-17.462,0.026l2.788-12.279l20.687-0.001l1.292-5.726
			l-27.037,0.027l-9.574,42.009L65.726,55.084L65.726,55.084z M35.902,55.138L30.069,13.17l-5.114,0.014L0,55.22l6.772-0.014
			L25.5,22.676l3.631,32.476L35.902,55.138L35.902,55.138z"/>
	</g>
</g>
</svg>
